<svg width="24" height="10" viewBox="0 0 24 10" fill="none" xmlns="http://www.w3.org/2000/svg">
<path id="Vector" d="M14.1609 1.31875L5.20105 9.77919C5.05142 9.9207 4.84995 10 4.64006 10C4.43018 10 4.2287 9.9207 4.07907 9.77919L0.239117 6.1537C0.164198 6.08287 0.104524 5.99855 0.0635014 5.90555C0.0224786 5.81255 0.000910348 5.71269 2.82015e-05 5.61167C-0.000853945 5.51066 0.0189672 5.41046 0.0583601 5.31681C0.0977529 5.22316 0.155946 5.13789 0.229617 5.06586C0.303287 4.99383 0.390993 4.93646 0.487726 4.89702C0.584458 4.85758 0.688324 4.83684 0.793392 4.83599C0.89846 4.83515 1.00267 4.8542 1.10008 4.89208C1.19749 4.92995 1.28618 4.9859 1.3611 5.05673L4.64006 8.15248L13.04 0.220812C13.1914 0.0777662 13.3957 -0.00158301 13.608 0.000219988C13.7131 0.00111274 13.817 0.0219018 13.9138 0.0614006C14.0106 0.100899 14.0983 0.158334 14.1719 0.230426C14.2456 0.302517 14.3038 0.387854 14.3432 0.481562C14.3825 0.575271 14.4023 0.675517 14.4014 0.776577C14.4005 0.877637 14.3788 0.977531 14.3377 1.07056C14.2967 1.16358 14.2369 1.24792 14.1619 1.31875H14.1609ZM23.7708 0.230426C23.6972 0.15828 23.6095 0.100797 23.5127 0.0612641C23.416 0.0217311 23.312 0.000922917 23.2069 3.00117e-05C23.1018 -0.000862894 22.9975 0.0181765 22.9 0.05606C22.8025 0.0939434 22.7138 0.149928 22.6388 0.220812L14.2389 8.15248L12.356 6.37386C12.2045 6.23095 12.0002 6.15172 11.788 6.15361C11.5759 6.15551 11.3731 6.23836 11.2245 6.38396C11.0758 6.52955 10.9934 6.72596 10.9954 6.92997C10.9974 7.13398 11.0835 7.32888 11.235 7.4718L13.6779 9.77919C13.8276 9.9207 14.0291 10 14.2389 10C14.4488 10 14.6503 9.9207 14.7999 9.77919L23.7598 1.31875C23.8349 1.24801 23.8948 1.16374 23.936 1.07074C23.9772 0.977747 23.9989 0.877855 24 0.776778C24.001 0.675701 23.9813 0.575422 23.942 0.481674C23.9026 0.387926 23.8445 0.30255 23.7708 0.230426Z" fill="white"/>
</svg>
